#N canvas 0.0 0.0 1600.0 900.0 12;
#X text 30 30 Pd → Python;
#X text 30 43.5 ===========;
#X obj 30 84.0 loadbang;
#X msg 30 111.0 connect 127.0.0.1 5001;
#X msg 40 138.0 disconnect;
#X obj 130 138.0 r send.to.iipyper;
#X obj 130 165.0 packOSC;
#X obj 30 192.0 udpsend;
#X floatatom 30 219.0 5 0 0 0 - - - 0;
#X obj 70 219.0 print reply.from.netreceive;
#X text 30 530 Python → Pd;
#X text 30 543.5 ===========;
#X obj 30 584.0 udpreceive 5000;
#X obj 30 611.0 unpackOSC;
#X obj 50 638.0 print receive.from.iipyper;
#X obj 30 665.0 s receive.from.iipyper;
#X text 330 30 /from/pd;
#X text 330 45 f_val;
#X text 330 60 f 0 1;
#X obj 330 80 r from_pd_f_v;
#X obj 330 137.0 vsl 20 120 0 1 0 0 empty empty empty 0 -9 0 12 #fcfcfc #000000 #000000 0 1;
#X floatatom 330 265.0 5 0 0 0 - - - 0;
#X msg 330 367.0 /from/pd \$1;
#X obj 330 392.0 s send.to.iipyper;
#X text 330 530 /to/pd;
#X obj 330 557.0 r receive.from.iipyper;
#X obj 330 584.0 routeOSC /to/pd;
#X obj 330 611.0 unpack ;
#X obj 407 611.0 print /to/pd;
#X obj 330 648.0 vsl 20 120 0 100 0 0 empty empty empty 0 -9 0 12 #fcfcfc #000000 #000000 0 1;
#X obj 330 776.0 int;
#X floatatom 330 803.0 5 0 0 0 - - - 0;
#X obj 330 833.0 s to_pd_i_v;
#X text 330 883.0 i_val;
#X text 330 898.0 s 0 99;
#X connect 2 0 3 0;
#X connect 3 0 7 0;
#X connect 4 0 7 0;
#X connect 5 0 6 0;
#X connect 6 0 7 0;
#X connect 7 0 8 0;
#X connect 7 1 9 0;
#X connect 12 0 13 0;
#X connect 13 0 15 0;
#X connect 13 0 14 0;
#X connect 20 0 21 0;
#X connect 19 0 20 0;
#X connect 21 0 22 0;
#X connect 22 0 23 0;
#X connect 29 0 30 0;
#X connect 30 0 31 0;
#X connect 25 0 26 0;
#X connect 26 0 27 0;
#X connect 26 0 28 0;
#X connect 27 0 29 0;
#X connect 31 0 32 0;
